#N canvas 105 41 635 445 10;
#X obj 264 65 inlet~;
#X obj 264 161 *~;
#X obj 311 161 *~;
#X obj 264 243 outlet~;
#X obj 326 240 outlet~;
#X obj 371 100 f \$1;
#X obj 368 78 loadbang;
#X obj 425 78 inlet;
#X obj 279 131 == 0;
#X connect 0 0 1 0;
#X connect 0 0 2 0;
#X connect 1 0 3 0;
#X connect 2 0 4 0;
#X connect 5 0 8 0;
#X connect 5 0 2 1;
#X connect 6 0 5 0;
#X connect 7 0 5 0;
#X connect 8 0 1 1;
