#N canvas 206 400 450 300 10;
#N canvas 115 166 1146 608 looper1 1;
#X obj 21 -57 adc~;
#X obj 257 320 +~;
#X obj 257 298 +~;
#X obj 257 424 dac~;
#X obj 258 389 *~;
#X obj 116 146 hsl 66 12 0 1 0 0 empty empty empty -2 -8 0 10 -257985
-1 -1 1000 1;
#X obj 285 321 delwrite~ looper1 10000;
#X obj 256 276 *~;
#X obj 356 244 vd~ looper1;
#X obj 315 221 vline~;
#X obj 430 244 loadbang;
#X obj 260 232 *~;
#X obj 250 182 vline~;
#X msg 250 162 \$1 5;
#X floatatom 250 141 5 0 0 0 - - -;
#X obj 115 103 hsl 66 8 0 1 0 0 empty empty empty -2 -8 0 10 -228856
-1 -1 900 1;
#X msg 248 100 1;
#X text 279 104 in vol;
#X text 429 69 looper;
#X msg 314 201 1 5 \, 0 5 \$1;
#X obj 316 181 f;
#X obj 106 126 bng 15 250 50 0 empty empty empty 17 7 0 10 -258113
-1 -1;
#X floatatom 433 103 5 0 0 0 - - -;
#X obj 432 124 t f f;
#X obj 340 160 - 10;
#X msg 392 203 \$1 5;
#X obj 358 223 vline~;
#X obj 389 272 *~;
#X obj 420 272 vline~;
#X msg 474 325 0 5 \, 1 5 11000;
#X msg 516 248 1;
#X obj 32 123 env~;
#X obj 32 144 / 100;
#X obj 33 163 hsl 66 12 0 1 0 0 empty empty empty -2 -8 0 10 -257985
-1 -1 0 1;
#X text 478 262 erase;
#X text 540 249 looperr;
#X text 359 341 outvol;
#X obj 95 65 spigot~;
#X obj 101 104 tgl 8 0 empty empty empty 17 7 0 10 -262144 -1 -1 1
1;
#X floatatom 355 118 5 0 0 0 - - -;
#X obj 209 372 *~;
#X obj 116 131 hsl 66 12 0 1 0 0 empty empty empty -2 -8 0 10 -257985
-1 -1 1000 1;
#X obj 568 131 key;
#X floatatom 569 154 5 0 0 0 - - -;
#X obj 573 176 sel 32;
#X msg 435 84 2000;
#X obj 287 77 loadbang;
#X obj 135 -24 bng 15 250 50 0 empty empty empty 17 7 0 10 -262144
-1 -1;
#X obj 143 -61 r button1;
#X obj 96 -62 tgl 15 0 empty empty empty 17 7 0 10 -262144 -1 -1 0
1;
#X floatatom 329 401 5 0 0 0 - - -;
#X obj 329 366 r mic;
#X floatatom 95 -35 5 0 0 0 - - -;
#X obj 53 5 *~;
#X obj 96 -99 r button0;
#X obj 751 139 bng 15 250 50 0 empty empty empty 17 7 0 10 -262144
-1 -1;
#X msg 751 170 1 10 \, 0 1000 10;
#X obj 751 212 vline~;
#X obj 751 248 *~;
#X obj 751 295 dac~;
#X floatatom 980 121 5 0 0 0 - - -;
#X obj 850 252 osc~ 220;
#X obj 814 319 phasor~;
#X obj 890 197 osc~ 220;
#X obj 974 217 adc~;
#X obj 974 249 fiddle~ 4096;
#X obj 974 282 0;
#X obj 974 315 s pitch;
#X obj 812 102 bng 15 250 50 0 empty empty empty 17 7 0 10 -262144
-1 -1;
#X obj 812 137 metro 1200;
#X floatatom 928 292 5 0 0 0 - - -;
#X floatatom 926 336 5 0 0 0 - - -;
#X floatatom 1037 290 5 0 0 0 - - -;
#X floatatom 1088 305 5 0 0 0 - - -;
#X obj 890 163 mtof 27;
#X msg 904 120 27;
#X obj 980 68 r tone;
#X obj 904 67 loadbang;
#X obj 812 53 r button3;
#X obj 523 289 r button5;
#X connect 0 0 53 0;
#X connect 0 1 53 0;
#X connect 1 0 4 0;
#X connect 2 0 1 0;
#X connect 2 0 6 0;
#X connect 4 0 3 0;
#X connect 4 0 3 1;
#X connect 5 0 4 1;
#X connect 7 0 2 0;
#X connect 8 0 27 0;
#X connect 9 0 7 1;
#X connect 10 0 30 0;
#X connect 11 0 7 0;
#X connect 12 0 11 0;
#X connect 13 0 12 0;
#X connect 14 0 13 0;
#X connect 15 0 14 0;
#X connect 16 0 15 0;
#X connect 16 0 5 0;
#X connect 16 0 41 0;
#X connect 16 0 38 0;
#X connect 19 0 9 0;
#X connect 20 0 19 0;
#X connect 21 0 20 0;
#X connect 22 0 23 0;
#X connect 23 0 24 0;
#X connect 23 1 25 0;
#X connect 24 0 20 1;
#X connect 25 0 26 0;
#X connect 26 0 8 0;
#X connect 27 0 2 1;
#X connect 28 0 27 1;
#X connect 29 0 28 0;
#X connect 30 0 28 0;
#X connect 31 0 32 0;
#X connect 32 0 33 0;
#X connect 37 1 31 0;
#X connect 37 1 11 1;
#X connect 37 1 40 0;
#X connect 38 0 37 1;
#X connect 39 0 24 0;
#X connect 40 0 3 1;
#X connect 41 0 40 1;
#X connect 42 0 43 0;
#X connect 43 0 44 0;
#X connect 44 0 21 0;
#X connect 45 0 22 0;
#X connect 46 0 16 0;
#X connect 46 0 45 0;
#X connect 47 0 21 0;
#X connect 48 0 47 0;
#X connect 49 0 52 0;
#X connect 50 0 4 1;
#X connect 51 0 50 0;
#X connect 52 0 53 1;
#X connect 53 0 37 0;
#X connect 54 0 49 0;
#X connect 55 0 56 0;
#X connect 56 0 57 0;
#X connect 57 0 58 0;
#X connect 58 0 59 0;
#X connect 58 0 59 1;
#X connect 60 0 74 0;
#X connect 63 0 58 1;
#X connect 65 0 66 0;
#X connect 65 0 70 0;
#X connect 65 1 71 0;
#X connect 65 2 72 0;
#X connect 65 3 73 0;
#X connect 66 0 67 0;
#X connect 68 0 69 0;
#X connect 69 0 56 0;
#X connect 74 0 63 0;
#X connect 75 0 74 0;
#X connect 76 0 60 0;
#X connect 77 0 75 0;
#X connect 78 0 68 0;
#X connect 79 0 29 0;
#X coords 0 -1 1 1 85 60 1 100 100;
#X restore 44 -52 pd looper1;
#X obj 74 -104 bng 15 250 50 0 empty empty empty 17 7 0 10 -262144
-1 -1;
#X obj 64 -149 r button1;
#X connect 2 0 1 0;
