#N canvas 8 35 726 326 10;
#X obj 125 212 readsf~;
#X msg 125 163 start;
#X obj 125 72 bng 15 250 50 0 empty empty empty 17 7 0 10 -262144 -1
-1;
#X floatatom 179 78 5 0 0 0 - - -;
#X floatatom 224 79 5 0 0 0 - - -;
#X obj 125 110 t b b b;
#X floatatom 270 78 5 0 0 0 - - -;
#X obj 125 43 inlet;
#X obj 179 43 inlet;
#X obj 224 43 inlet;
#X obj 270 43 inlet;
#X msg 179 163 open ./qq/\$3.wav;
#X obj 125 265 dac~;
#X obj 44 24 r trigger;
#X obj 179 107 pack f f f;
#X obj 329 36 r midinote;
#X obj 125 239 *~;
#X floatatom 215 223 5 0 0 0 - - -;
#X msg 223 193 1;
#X obj 510 98 tgl 15 0 empty empty empty 17 7 0 10 -262144 -1 -1 1
1;
#X obj 510 161 f;
#X obj 555 161 + 1;
#X text 507 35 leer;
#X floatatom 561 97 5 0 0 0 - - -;
#X obj 510 63 r play;
#X obj 561 61 r tempo;
#X floatatom 517 223 5 0 0 0 - - -;
#X obj 531 273 bng 15 250 50 0 empty empty empty 17 7 0 10 -262144
-1 -1;
#X obj 433 204 bng 15 250 50 0 empty empty empty 17 7 0 10 -262144
-1 -1;
#X obj 439 88 loadbang;
#X obj 510 128 metro 882;
#X connect 0 0 16 0;
#X connect 1 0 0 0;
#X connect 2 0 5 0;
#X connect 3 0 14 0;
#X connect 4 0 14 1;
#X connect 5 0 1 0;
#X connect 5 1 3 0;
#X connect 5 1 4 0;
#X connect 5 1 6 0;
#X connect 5 1 18 0;
#X connect 6 0 14 2;
#X connect 7 0 2 0;
#X connect 8 0 3 0;
#X connect 9 0 4 0;
#X connect 10 0 6 0;
#X connect 11 0 0 0;
#X connect 13 0 2 0;
#X connect 14 0 11 0;
#X connect 15 0 6 0;
#X connect 16 0 12 0;
#X connect 16 0 12 1;
#X connect 17 0 16 1;
#X connect 18 0 17 0;
#X connect 19 0 30 0;
#X connect 20 0 21 0;
#X connect 20 0 26 0;
#X connect 21 0 20 1;
#X connect 23 0 30 1;
#X connect 24 0 19 0;
#X connect 25 0 23 0;
#X connect 26 0 27 0;
#X connect 28 0 2 0;
#X connect 29 0 30 0;
#X connect 30 0 20 0;
#X connect 30 0 28 0;
